<svg version="1.1" id="Layer_1" xmlns="http://www.w3.org/2000/svg" xmlns:xlink="http://www.w3.org/1999/xlink" x="0px" y="0px"
	 width="100%" viewBox="0 0 1667 2500" enable-background="new 0 0 1667 2500" xml:space="preserve">
<path fill="#000000" opacity="1.000000" stroke="none" 
	d="
M1668.000000,1290.000000 
	C1668.000000,1693.599609 1668.000000,2097.199219 1668.000000,2501.000000 
	C1265.300659,2501.000000 862.601196,2501.000000 459.284149,2500.590332 
	C459.345123,2499.796143 459.990265,2499.161377 460.707458,2499.065674 
	C468.669891,2498.002441 476.759033,2497.568359 484.590851,2495.910645 
	C503.359253,2491.937744 522.210876,2488.121338 540.660400,2482.931641 
	C572.703796,2473.917480 602.693115,2459.906494 631.303650,2442.937744 
	C658.614746,2426.739258 683.649902,2407.491211 706.636169,2385.658691 
	C715.617310,2377.128418 723.700745,2367.639648 732.032043,2358.441895 
	C746.467712,2342.504639 759.046448,2325.193848 770.599182,2307.047363 
	C787.343323,2280.745605 800.793396,2252.918213 811.166931,2223.552979 
	C819.277466,2200.593994 825.961426,2177.248291 828.992737,2153.043701 
	C831.358215,2134.155273 834.671509,2115.184570 834.736877,2096.240723 
	C835.221924,1955.601318 835.000671,1814.959595 834.993042,1674.318481 
	C834.992920,1672.155518 834.889160,1669.992676 834.896240,1667.375488 
	C834.972534,1544.809448 834.985413,1422.697754 835.003784,1300.586060 
	C835.004456,1296.089233 835.059814,1291.592285 835.469238,1287.280151 
	C836.896362,1296.559937 837.804382,1305.673828 839.019348,1314.746460 
	C841.910339,1336.334473 846.999878,1357.437012 853.669800,1378.149170 
	C861.616089,1402.825317 871.691650,1426.595581 884.026611,1449.428833 
	C899.897095,1478.806641 918.976135,1505.974731 941.367981,1530.632202 
	C958.139282,1549.100464 975.952026,1566.813232 996.225159,1581.425171 
	C1014.847534,1594.847412 1034.156128,1607.529419 1054.149902,1618.783081 
	C1078.175171,1632.305664 1103.879639,1642.244995 1130.369995,1650.330688 
	C1163.151978,1660.336548 1196.631958,1666.068848 1230.675415,1667.707642 
	C1250.281860,1668.651611 1270.083862,1667.359009 1289.695923,1665.795044 
	C1305.738770,1664.515503 1321.710327,1661.783203 1337.572754,1658.916016 
	C1367.986816,1653.418579 1397.000000,1643.255981 1425.001709,1630.383423 
	C1448.790283,1619.447510 1471.395874,1606.387939 1492.794800,1591.153076 
	C1510.192139,1578.766724 1526.765503,1565.375854 1541.791870,1550.351807 
	C1555.954468,1536.190918 1569.245850,1521.033813 1581.753418,1505.382324 
	C1591.766357,1492.852661 1600.792725,1479.368774 1608.866577,1465.499023 
	C1618.151855,1449.548584 1626.877563,1433.118164 1634.063477,1416.141602 
	C1641.787842,1397.893188 1648.164307,1378.983154 1653.812378,1359.970703 
	C1660.395874,1337.810425 1664.611450,1315.062500 1666.086914,1291.894043 
	C1666.129517,1291.224731 1667.336182,1290.629639 1668.000000,1290.000000 
z"/>
<path fill="#A259FF" opacity="1.000000" stroke="none" 
	d="
M835.089722,1287.095459 
	C835.059814,1291.592285 835.004456,1296.089233 835.003784,1300.586060 
	C834.985413,1422.697754 834.972534,1544.809448 834.438721,1667.399414 
	C693.607788,1667.889771 553.296875,1667.902954 412.985931,1667.910645 
	C406.990509,1667.911011 400.995087,1667.860229 394.759003,1667.479492 
	C386.004669,1666.419189 377.424805,1666.159180 368.991577,1664.909546 
	C353.242523,1662.576050 337.477600,1660.150269 321.901825,1656.890747 
	C295.212585,1651.305786 269.566284,1642.225830 244.850494,1630.844727 
	C221.833420,1620.245972 199.846222,1607.738281 179.020966,1593.126221 
	C160.187210,1579.911499 142.392960,1565.472168 126.113716,1549.336304 
	C113.975082,1537.304688 102.441605,1524.508057 91.895790,1511.065674 
	C80.482521,1496.517700 69.690620,1481.328247 60.174973,1465.489136 
	C50.760548,1449.818481 42.293404,1433.401611 35.209625,1416.555664 
	C27.401758,1397.987305 21.015041,1378.748291 15.154980,1359.453369 
	C8.481036,1337.478882 4.429844,1314.880737 2.913036,1291.890259 
	C2.868883,1291.220947 1.663794,1290.628418 1.000000,1290.000000 
	C1.000000,1264.312378 1.000000,1238.624878 1.344242,1212.808594 
	C2.458642,1208.244385 3.269842,1203.815430 3.991207,1199.371826 
	C6.103337,1186.361206 7.171891,1173.080566 10.499099,1160.390747 
	C15.900128,1139.791626 21.970896,1119.287720 29.223177,1099.274292 
	C38.525650,1073.603149 50.962582,1049.223633 66.222557,1026.584717 
	C77.680595,1009.585999 89.916054,992.934937 103.405128,977.529907 
	C117.588531,961.331848 132.834427,945.818420 149.174713,931.825989 
	C164.525940,918.680481 181.607178,907.453552 198.481995,896.215454 
	C218.111633,883.142822 239.224457,872.479248 261.270203,864.263977 
	C281.981110,856.546143 303.171906,849.768738 324.622559,844.492310 
	C342.099884,840.193237 360.267181,838.683228 378.141541,836.023926 
	C383.407410,835.240479 388.717560,834.754761 394.472290,834.073303 
	C400.763092,834.107483 406.588989,834.280945 412.414917,834.282532 
	C552.117432,834.320740 691.820007,834.340820 831.522522,834.358398 
	C832.353149,834.358521 833.183838,834.277527 834.155151,834.411316 
	C834.545105,834.757446 834.795471,834.925232 835.026306,835.553284 
	C835.003784,957.647400 835.000916,1079.279663 835.003845,1200.911865 
	C835.003906,1205.576050 835.059875,1210.240356 835.029419,1215.375732 
	C835.009216,1239.596313 835.049500,1263.345947 835.089722,1287.095459 
z"/>
<path fill="#FF7262" opacity="1.000000" stroke="none" 
	d="
M835.046875,835.091370 
	C834.795471,834.925232 834.545105,834.757446 834.175781,833.927368 
	C834.066650,832.266968 834.087097,831.267395 834.087097,830.267761 
	C834.088806,555.344055 834.089172,280.420380 834.085693,5.496709 
	C834.085693,3.997806 834.029785,2.498903 834.000000,1.000000 
	C986.354248,1.000000 1138.708496,1.000000 1291.220215,1.363692 
	C1292.227051,2.148487 1293.041260,2.829952 1293.931274,2.949931 
	C1301.867310,4.019943 1309.921021,4.484104 1317.741089,6.093519 
	C1335.522217,9.752941 1353.410156,13.183894 1370.856445,18.115932 
	C1402.046753,26.933332 1431.528442,39.999462 1459.671143,56.176834 
	C1487.130493,71.961380 1512.285522,90.834396 1535.530884,112.204399 
	C1552.557739,127.857658 1567.946289,145.104813 1582.051636,163.488602 
	C1597.339600,183.413559 1610.748047,204.520737 1622.296997,226.789886 
	C1634.726807,250.757828 1644.932739,275.678040 1651.911377,301.774567 
	C1655.846802,316.490936 1659.014771,331.437469 1661.896240,346.402039 
	C1663.838501,356.488617 1664.640503,366.792938 1666.081177,376.981659 
	C1666.187134,377.729919 1667.336060,378.330658 1668.000000,379.000000 
	C1668.000000,404.687561 1668.000000,430.375122 1667.620483,456.264099 
	C1666.161011,463.168610 1665.154907,469.884644 1663.985352,476.572083 
	C1661.855957,488.747345 1660.513184,501.149017 1657.244507,513.016174 
	C1651.831665,532.668335 1645.723999,552.176147 1638.863037,571.370850 
	C1630.080688,595.941101 1617.677612,618.834778 1603.658936,640.817444 
	C1591.524780,659.844543 1578.101318,677.871704 1562.979004,694.702271 
	C1546.791382,712.718384 1529.457031,729.516357 1510.581543,744.578308 
	C1498.154419,754.494629 1485.072754,763.836182 1471.342163,771.814026 
	C1452.132812,782.975037 1432.562134,793.818542 1412.205933,802.625244 
	C1385.871704,814.018311 1358.448853,822.801514 1329.872070,827.001221 
	C1311.605835,829.685669 1293.251587,831.771301 1274.475098,834.069702 
	C1254.008667,834.398071 1234.004028,834.782288 1213.535522,835.094727 
	C1089.892090,835.015320 966.712463,835.007080 843.532898,835.003845 
	C840.704224,835.003784 837.875549,835.060913 835.046875,835.091370 
z"/>
<path fill="#F24E1E" opacity="1.000000" stroke="none" 
	d="
M833.531372,1.000000 
	C834.029785,2.498903 834.085693,3.997806 834.085693,5.496709 
	C834.089172,280.420380 834.088806,555.344055 834.087097,830.267761 
	C834.087097,831.267395 834.066650,832.266968 834.035095,833.750549 
	C833.183838,834.277527 832.353149,834.358521 831.522522,834.358398 
	C691.820007,834.340820 552.117432,834.320740 412.414917,834.282532 
	C406.588989,834.280945 400.763092,834.107483 394.017273,834.018433 
	C385.900513,833.350037 378.678741,832.872864 371.512299,831.961060 
	C359.193115,830.393555 346.760681,829.250977 334.641632,826.677856 
	C312.850342,822.051208 291.454285,815.918579 270.521240,808.100403 
	C246.171555,799.006226 223.043442,787.498474 200.810959,774.182983 
	C178.443924,760.786926 157.558624,745.203186 138.364273,727.621338 
	C119.957062,710.760620 102.519699,692.787048 87.445435,672.814697 
	C65.458992,643.684143 46.256706,612.782349 33.081951,578.609314 
	C25.905931,559.995972 19.814175,540.927246 14.046888,521.818420 
	C7.907197,501.475647 4.584797,480.520294 2.916029,459.317963 
	C2.851661,458.500092 1.664152,457.770660 0.999998,457.000000 
	C1.000000,430.979095 1.000000,404.958221 1.397546,378.683228 
	C2.538723,373.151489 3.027816,367.822876 4.072413,362.605469 
	C7.587635,345.048065 11.059498,327.475952 14.994693,310.010101 
	C20.816879,284.169128 30.209902,259.470459 42.262798,236.020889 
	C52.305481,216.482285 63.360695,197.291153 75.802948,179.209137 
	C87.463745,162.262787 101.173462,146.661926 114.684608,131.078537 
	C122.157196,122.459854 130.680740,114.626396 139.427734,107.267693 
	C153.067780,95.792503 166.923737,84.499733 181.369568,74.073746 
	C203.649994,57.993301 227.546722,44.489872 253.191925,34.528065 
	C272.277924,27.114155 291.558441,19.981483 311.207397,14.296282 
	C331.896393,8.310142 353.172760,4.471760 374.763397,2.914112 
	C375.550873,2.857301 376.256317,1.663776 377.000000,1.000000 
	C529.020874,1.000000 681.041809,1.000000 833.531372,1.000000 
z"/>
<path fill="#0ACF83" opacity="1.000000" stroke="none" 
	d="
M394.999664,1667.833252 
	C400.995087,1667.860229 406.990509,1667.911011 412.985931,1667.910645 
	C553.296875,1667.902954 693.607788,1667.889771 834.376221,1667.853760 
	C834.889160,1669.992676 834.992920,1672.155518 834.993042,1674.318481 
	C835.000671,1814.959595 835.221924,1955.601318 834.736877,2096.240723 
	C834.671509,2115.184570 831.358215,2134.155273 828.992737,2153.043701 
	C825.961426,2177.248291 819.277466,2200.593994 811.166931,2223.552979 
	C800.793396,2252.918213 787.343323,2280.745605 770.599182,2307.047363 
	C759.046448,2325.193848 746.467712,2342.504639 732.032043,2358.441895 
	C723.700745,2367.639648 715.617310,2377.128418 706.636169,2385.658691 
	C683.649902,2407.491211 658.614746,2426.739258 631.303650,2442.937744 
	C602.693115,2459.906494 572.703796,2473.917480 540.660400,2482.931641 
	C522.210876,2488.121338 503.359253,2491.937744 484.590851,2495.910645 
	C476.759033,2497.568359 468.669891,2498.002441 460.707458,2499.065674 
	C459.990265,2499.161377 459.345123,2499.796143 458.833252,2500.590332 
	C431.979095,2501.000000 404.958221,2501.000000 377.647430,2500.592773 
	C370.981293,2499.129150 364.634186,2497.830078 358.223480,2497.060547 
	C336.774139,2494.484619 315.920654,2489.344971 295.279327,2483.117432 
	C262.637299,2473.269531 231.827225,2459.350342 202.587051,2441.887695 
	C177.568619,2426.946533 154.222809,2409.615479 133.282974,2389.454346 
	C118.319016,2375.047119 104.641708,2359.231689 91.100975,2343.435547 
	C73.182877,2322.532471 59.000172,2299.026611 46.352715,2274.658203 
	C33.796158,2250.465088 23.727711,2225.182617 16.536785,2198.888428 
	C12.675375,2184.769287 9.820999,2170.348633 7.093864,2155.954102 
	C5.207722,2145.998535 4.349022,2135.849854 2.906472,2125.805176 
	C2.808935,2125.125977 1.659990,2124.598145 1.000024,2124.000000 
	C1.000000,2097.979004 1.000000,2071.958252 1.411349,2045.638184 
	C2.546703,2041.059814 3.252220,2036.777466 3.998146,2032.502075 
	C6.547050,2017.892578 8.690614,2003.196655 11.765901,1988.698608 
	C16.406525,1966.820679 23.127337,1945.460938 32.233658,1925.071655 
	C40.621750,1906.290649 49.659977,1887.687134 59.955666,1869.899170 
	C72.926048,1847.490234 87.879036,1826.238525 106.031898,1807.607544 
	C121.278664,1791.959106 136.493561,1776.147339 153.022354,1761.917725 
	C169.451279,1747.774170 187.567825,1735.699951 206.393341,1724.664673 
	C228.436249,1711.743408 251.298370,1700.738281 275.264771,1692.098755 
	C313.954681,1678.151855 353.854431,1669.834229 394.999664,1667.833252 
z"/>
<path fill="#1ABCFE" opacity="1.000000" stroke="none" 
	d="
M1213.999390,835.166504 
	C1234.004028,834.782288 1254.008667,834.398071 1274.715820,834.427979 
	C1280.337524,835.226379 1285.296875,835.335449 1290.168823,836.044861 
	C1307.553467,838.576294 1325.026733,840.710693 1342.248169,844.103577 
	C1371.883179,849.941956 1400.209229,859.972290 1427.527588,872.865906 
	C1450.452393,883.685852 1472.770508,895.649353 1492.888550,911.115662 
	C1509.625610,923.982727 1526.390747,937.026367 1541.608276,951.595337 
	C1556.037598,965.409912 1569.096924,980.808960 1581.588013,996.446411 
	C1591.679565,1009.079834 1600.797729,1022.656555 1608.947632,1036.631470 
	C1618.231201,1052.550293 1626.935913,1068.963135 1634.103027,1085.917725 
	C1641.817261,1104.166504 1648.171753,1123.080200 1653.814697,1142.090942 
	C1660.388306,1164.236572 1664.634521,1186.961182 1666.087402,1210.117065 
	C1666.129028,1210.781982 1667.336182,1211.374023 1668.000000,1212.000000 
	C1668.000000,1237.687622 1668.000000,1263.375122 1668.000000,1289.531372 
	C1667.336182,1290.629639 1666.129517,1291.224731 1666.086914,1291.894043 
	C1664.611450,1315.062500 1660.395874,1337.810425 1653.812378,1359.970703 
	C1648.164307,1378.983154 1641.787842,1397.893188 1634.063477,1416.141602 
	C1626.877563,1433.118164 1618.151855,1449.548584 1608.866577,1465.499023 
	C1600.792725,1479.368774 1591.766357,1492.852661 1581.753418,1505.382324 
	C1569.245850,1521.033813 1555.954468,1536.190918 1541.791870,1550.351807 
	C1526.765503,1565.375854 1510.192139,1578.766724 1492.794800,1591.153076 
	C1471.395874,1606.387939 1448.790283,1619.447510 1425.001709,1630.383423 
	C1397.000000,1643.255981 1367.986816,1653.418579 1337.572754,1658.916016 
	C1321.710327,1661.783203 1305.738770,1664.515503 1289.695923,1665.795044 
	C1270.083862,1667.359009 1250.281860,1668.651611 1230.675415,1667.707642 
	C1196.631958,1666.068848 1163.151978,1660.336548 1130.369995,1650.330688 
	C1103.879639,1642.244995 1078.175171,1632.305664 1054.149902,1618.783081 
	C1034.156128,1607.529419 1014.847534,1594.847412 996.225159,1581.425171 
	C975.952026,1566.813232 958.139282,1549.100464 941.367981,1530.632202 
	C918.976135,1505.974731 899.897095,1478.806641 884.026611,1449.428833 
	C871.691650,1426.595581 861.616089,1402.825317 853.669800,1378.149170 
	C846.999878,1357.437012 841.910339,1336.334473 839.019348,1314.746460 
	C837.804382,1305.673828 836.896362,1296.559937 835.469238,1287.280151 
	C835.049500,1263.345947 835.009216,1239.596313 835.408936,1215.190796 
	C838.551147,1196.667236 840.805908,1178.717896 844.053406,1160.949951 
	C849.904480,1128.937134 861.361816,1098.694336 875.379150,1069.489014 
	C882.027954,1055.636230 890.265442,1042.533936 897.995789,1029.215088 
	C910.316101,1007.987915 925.373474,988.693176 941.998291,970.790771 
	C957.937988,953.626221 974.783752,937.323975 993.409912,922.885620 
	C1013.243042,907.511719 1034.064819,893.766541 1056.183228,882.022034 
	C1084.456543,867.009277 1114.114502,855.418884 1145.140381,847.419617 
	C1163.722656,842.628601 1182.469971,838.737549 1201.617310,836.963989 
	C1205.764526,836.579834 1209.873047,835.776672 1213.999390,835.166504 
z"/>
<path fill="#000000" opacity="1.000000" stroke="none" 
	d="
M1668.000000,1211.531372 
	C1667.336182,1211.374023 1666.129028,1210.781982 1666.087402,1210.117065 
	C1664.634521,1186.961182 1660.388306,1164.236572 1653.814697,1142.090942 
	C1648.171753,1123.080200 1641.817261,1104.166504 1634.103027,1085.917725 
	C1626.935913,1068.963135 1618.231201,1052.550293 1608.947632,1036.631470 
	C1600.797729,1022.656555 1591.679565,1009.079834 1581.588013,996.446411 
	C1569.096924,980.808960 1556.037598,965.409912 1541.608276,951.595337 
	C1526.390747,937.026367 1509.625610,923.982727 1492.888550,911.115662 
	C1472.770508,895.649353 1450.452393,883.685852 1427.527588,872.865906 
	C1400.209229,859.972290 1371.883179,849.941956 1342.248169,844.103577 
	C1325.026733,840.710693 1307.553467,838.576294 1290.168823,836.044861 
	C1285.296875,835.335449 1280.337524,835.226379 1275.177612,834.483704 
	C1293.251587,831.771301 1311.605835,829.685669 1329.872070,827.001221 
	C1358.448853,822.801514 1385.871704,814.018311 1412.205933,802.625244 
	C1432.562134,793.818542 1452.132812,782.975037 1471.342163,771.814026 
	C1485.072754,763.836182 1498.154419,754.494629 1510.581543,744.578308 
	C1529.457031,729.516357 1546.791382,712.718384 1562.979004,694.702271 
	C1578.101318,677.871704 1591.524780,659.844543 1603.658936,640.817444 
	C1617.677612,618.834778 1630.080688,595.941101 1638.863037,571.370850 
	C1645.723999,552.176147 1651.831665,532.668335 1657.244507,513.016174 
	C1660.513184,501.149017 1661.855957,488.747345 1663.985352,476.572083 
	C1665.154907,469.884644 1666.161011,463.168610 1667.620483,456.732758 
	C1668.000000,708.354248 1668.000000,959.708496 1668.000000,1211.531372 
z"/>
<path fill="#000000" opacity="1.000000" stroke="none" 
	d="
M0.999998,457.468658 
	C1.664152,457.770660 2.851661,458.500092 2.916029,459.317963 
	C4.584797,480.520294 7.907197,501.475647 14.046888,521.818420 
	C19.814175,540.927246 25.905931,559.995972 33.081951,578.609314 
	C46.256706,612.782349 65.458992,643.684143 87.445435,672.814697 
	C102.519699,692.787048 119.957062,710.760620 138.364273,727.621338 
	C157.558624,745.203186 178.443924,760.786926 200.810959,774.182983 
	C223.043442,787.498474 246.171555,799.006226 270.521240,808.100403 
	C291.454285,815.918579 312.850342,822.051208 334.641632,826.677856 
	C346.760681,829.250977 359.193115,830.393555 371.512299,831.961060 
	C378.678741,832.872864 385.900513,833.350037 393.552399,834.077637 
	C388.717560,834.754761 383.407410,835.240479 378.141541,836.023926 
	C360.267181,838.683228 342.099884,840.193237 324.622559,844.492310 
	C303.171906,849.768738 281.981110,856.546143 261.270203,864.263977 
	C239.224457,872.479248 218.111633,883.142822 198.481995,896.215454 
	C181.607178,907.453552 164.525940,918.680481 149.174713,931.825989 
	C132.834427,945.818420 117.588531,961.331848 103.405128,977.529907 
	C89.916054,992.934937 77.680595,1009.585999 66.222557,1026.584717 
	C50.962582,1049.223633 38.525650,1073.603149 29.223177,1099.274292 
	C21.970896,1119.287720 15.900128,1139.791626 10.499099,1160.390747 
	C7.171891,1173.080566 6.103337,1186.361206 3.991207,1199.371826 
	C3.269842,1203.815430 2.458642,1208.244385 1.344242,1212.340088 
	C1.000000,960.645752 1.000000,709.291565 0.999998,457.468658 
z"/>
<path fill="#000000" opacity="1.000000" stroke="none" 
	d="
M394.759003,1667.479492 
	C353.854431,1669.834229 313.954681,1678.151855 275.264771,1692.098755 
	C251.298370,1700.738281 228.436249,1711.743408 206.393341,1724.664673 
	C187.567825,1735.699951 169.451279,1747.774170 153.022354,1761.917725 
	C136.493561,1776.147339 121.278664,1791.959106 106.031898,1807.607544 
	C87.879036,1826.238525 72.926048,1847.490234 59.955666,1869.899170 
	C49.659977,1887.687134 40.621750,1906.290649 32.233658,1925.071655 
	C23.127337,1945.460938 16.406525,1966.820679 11.765901,1988.698608 
	C8.690614,2003.196655 6.547050,2017.892578 3.998146,2032.502075 
	C3.252220,2036.777466 2.546703,2041.059814 1.411349,2045.169434 
	C1.000000,1793.645752 1.000000,1542.291504 1.000000,1290.468628 
	C1.663794,1290.628418 2.868883,1291.220947 2.913036,1291.890259 
	C4.429844,1314.880737 8.481036,1337.478882 15.154980,1359.453369 
	C21.015041,1378.748291 27.401758,1397.987305 35.209625,1416.555664 
	C42.293404,1433.401611 50.760548,1449.818481 60.174973,1465.489136 
	C69.690620,1481.328247 80.482521,1496.517700 91.895790,1511.065674 
	C102.441605,1524.508057 113.975082,1537.304688 126.113716,1549.336304 
	C142.392960,1565.472168 160.187210,1579.911499 179.020966,1593.126221 
	C199.846222,1607.738281 221.833420,1620.245972 244.850494,1630.844727 
	C269.566284,1642.225830 295.212585,1651.305786 321.901825,1656.890747 
	C337.477600,1660.150269 353.242523,1662.576050 368.991577,1664.909546 
	C377.424805,1666.159180 386.004669,1666.419189 394.759003,1667.479492 
z"/>
<path fill="#000000" opacity="1.000000" stroke="none" 
	d="
M1668.000000,378.531372 
	C1667.336060,378.330658 1666.187134,377.729919 1666.081177,376.981659 
	C1664.640503,366.792938 1663.838501,356.488617 1661.896240,346.402039 
	C1659.014771,331.437469 1655.846802,316.490936 1651.911377,301.774567 
	C1644.932739,275.678040 1634.726807,250.757828 1622.296997,226.789886 
	C1610.748047,204.520737 1597.339600,183.413559 1582.051636,163.488602 
	C1567.946289,145.104813 1552.557739,127.857658 1535.530884,112.204399 
	C1512.285522,90.834396 1487.130493,71.961380 1459.671143,56.176834 
	C1431.528442,39.999462 1402.046753,26.933332 1370.856445,18.115932 
	C1353.410156,13.183894 1335.522217,9.752941 1317.741089,6.093519 
	C1309.921021,4.484104 1301.867310,4.019943 1293.931274,2.949931 
	C1293.041260,2.829952 1292.227051,2.148487 1291.688843,1.363692 
	C1417.260620,1.000000 1542.521118,1.000000 1668.000000,1.000000 
	C1668.000000,126.687477 1668.000000,252.375076 1668.000000,378.531372 
z"/>
<path fill="#000000" opacity="1.000000" stroke="none" 
	d="
M1.000024,2124.468750 
	C1.659990,2124.598145 2.808935,2125.125977 2.906472,2125.805176 
	C4.349022,2135.849854 5.207722,2145.998535 7.093864,2155.954102 
	C9.820999,2170.348633 12.675375,2184.769287 16.536785,2198.888428 
	C23.727711,2225.182617 33.796158,2250.465088 46.352715,2274.658203 
	C59.000172,2299.026611 73.182877,2322.532471 91.100975,2343.435547 
	C104.641708,2359.231689 118.319016,2375.047119 133.282974,2389.454346 
	C154.222809,2409.615479 177.568619,2426.946533 202.587051,2441.887695 
	C231.827225,2459.350342 262.637299,2473.269531 295.279327,2483.117432 
	C315.920654,2489.344971 336.774139,2494.484619 358.223480,2497.060547 
	C364.634186,2497.830078 370.981293,2499.129150 377.178772,2500.592773 
	C251.739532,2501.000000 126.479050,2501.000000 1.000000,2501.000000 
	C1.000000,2375.645996 1.000000,2250.291748 1.000024,2124.468750 
z"/>
<path fill="#000000" opacity="1.000000" stroke="none" 
	d="
M376.531342,1.000000 
	C376.256317,1.663776 375.550873,2.857301 374.763397,2.914112 
	C353.172760,4.471760 331.896393,8.310142 311.207397,14.296282 
	C291.558441,19.981483 272.277924,27.114155 253.191925,34.528065 
	C227.546722,44.489872 203.649994,57.993301 181.369568,74.073746 
	C166.923737,84.499733 153.067780,95.792503 139.427734,107.267693 
	C130.680740,114.626396 122.157196,122.459854 114.684608,131.078537 
	C101.173462,146.661926 87.463745,162.262787 75.802948,179.209137 
	C63.360695,197.291153 52.305481,216.482285 42.262798,236.020889 
	C30.209902,259.470459 20.816879,284.169128 14.994693,310.010101 
	C11.059498,327.475952 7.587635,345.048065 4.072413,362.605469 
	C3.027816,367.822876 2.538723,373.151489 1.397546,378.214600 
	C1.000000,252.406357 1.000000,126.812714 1.000000,1.000000 
	C126.020805,1.000000 251.041748,1.000000 376.531342,1.000000 
z"/>
<path fill="#000000" opacity="1.000000" stroke="none" 
	d="
M1213.535522,835.094727 
	C1209.873047,835.776672 1205.764526,836.579834 1201.617310,836.963989 
	C1182.469971,838.737549 1163.722656,842.628601 1145.140381,847.419617 
	C1114.114502,855.418884 1084.456543,867.009277 1056.183228,882.022034 
	C1034.064819,893.766541 1013.243042,907.511719 993.409912,922.885620 
	C974.783752,937.323975 957.937988,953.626221 941.998291,970.790771 
	C925.373474,988.693176 910.316101,1007.987915 897.995789,1029.215088 
	C890.265442,1042.533936 882.027954,1055.636230 875.379150,1069.489014 
	C861.361816,1098.694336 849.904480,1128.937134 844.053406,1160.949951 
	C840.805908,1178.717896 838.551147,1196.667236 835.469360,1214.719727 
	C835.059875,1210.240356 835.003906,1205.576050 835.003845,1200.911865 
	C835.000916,1079.279663 835.003784,957.647400 835.026306,835.553284 
	C837.875549,835.060913 840.704224,835.003784 843.532898,835.003845 
	C966.712463,835.007080 1089.892090,835.015320 1213.535522,835.094727 
z"/>
</svg>