<?xml version="1.0" encoding="UTF-8"?>
<svg version="1.1" xmlns="http://www.w3.org/2000/svg" width="48" height="48">
<path d="M0 0 C5.30266412 3.16963757 9.17370733 7.32263694 11.578125 13.0546875 C12.51931185 19.98974851 12.21357546 25.7110092 8.0078125 31.4375 C4.36759279 35.55512557 0.35490184 38.67783921 -5.15625 39.42578125 C-12.28977153 39.58286657 -16.99640808 38.85111478 -22.421875 34.0546875 C-27.75193971 28.30382821 -28.93690047 23.84546529 -28.8046875 16.1015625 C-28.06457806 10.21089552 -25.10864271 6.61803318 -20.859375 2.6796875 C-14.49302633 -1.56454495 -7.37032288 -2.87680345 0 0 Z " fill="#2D2C2D" transform="translate(32.421875,4.9453125)"/>
<path d="M0 0 C5.7160184 1.14320368 7.0960078 2.95291887 10.3125 7.375 C10.76689453 7.96539063 11.22128906 8.55578125 11.68945312 9.1640625 C15 13.58476269 15 13.58476269 15 17 C11.32943063 15.52202738 9.58914217 13.52384523 7.25 10.375 C6.63640625 9.55773438 6.0228125 8.74046875 5.390625 7.8984375 C4.93171875 7.27195312 4.4728125 6.64546875 4 6 C3.67 9.3 3.34 12.6 3 16 C2.01 16 1.02 16 0 16 C0 10.72 0 5.44 0 0 Z " fill="#E9E9E9" transform="translate(16,16)"/>
<path d="M0 0 C0.99 0 1.98 0 3 0 C3 2.64 3 5.28 3 8 C2.01 8 1.02 8 0 8 C0 5.36 0 2.72 0 0 Z " fill="#C5C5C5" transform="translate(29,16)"/>
</svg>
