<?xml version="1.0" encoding="UTF-8"?>
<svg version="1.1" xmlns="http://www.w3.org/2000/svg" width="512" height="512">
<path d="M0 0 C0.71800781 0.5878125 1.43601562 1.175625 2.17578125 1.78125 C2.99949219 2.40773438 3.82320312 3.03421875 4.671875 3.6796875 C24.39478192 20.23339097 35.74369046 48.16656932 44.31152344 71.81884766 C45.31167359 75.05003892 45.31167359 75.05003892 47.17578125 77.78125 C48.92185281 77.59669507 50.65969314 77.33351332 52.390625 77.0390625 C53.47021484 76.85988281 54.54980469 76.68070312 55.66210938 76.49609375 C56.80099609 76.30144531 57.93988281 76.10679688 59.11328125 75.90625 C91.08725687 70.49325938 125.69860671 68.90533428 154.17578125 86.78125 C165.97965376 95.39682311 172.48335489 106.93457403 175.703125 121.1015625 C175.98084486 122.98092702 176.08091109 124.88384678 176.17578125 126.78125 C176.22605469 127.47605469 176.27632813 128.17085937 176.328125 128.88671875 C176.91199457 142.8295242 173.08905924 156.30398075 167.17578125 168.78125 C166.85867188 169.45124023 166.5415625 170.12123047 166.21484375 170.81152344 C158.52244912 186.74044525 148.37164033 200.71416964 136.671875 213.92578125 C135.84816406 214.86808594 135.02445312 215.81039062 134.17578125 216.78125 C133.52738281 217.46574219 132.87898438 218.15023437 132.2109375 218.85546875 C130.89328882 220.79976203 130.89328882 220.79976203 131.74609375 223.26171875 C133.27057709 225.94830824 134.90133005 227.8773745 137.05078125 230.09375 C156.06935732 250.70230349 174.87854562 278.91775731 176.17578125 307.78125 C176.253125 308.90660156 176.253125 308.90660156 176.33203125 310.0546875 C176.86644941 323.81595508 172.90863995 336.61562859 163.86328125 346.96875 C162.31693344 348.58849239 160.75522418 350.19376237 159.17578125 351.78125 C158.57121094 352.420625 157.96664063 353.06 157.34375 353.71875 C141.79572949 368.89416 117.57857306 371.00978359 97.11328125 371.03125 C96.36166718 371.03258942 95.6100531 371.03392883 94.83566284 371.03530884 C77.82723629 371.02875523 61.55962148 369.54614703 45.17578125 364.78125 C44.92054688 366.06902344 44.6653125 367.35679687 44.40234375 368.68359375 C43.26324877 373.78957204 41.52862054 378.50961494 39.55078125 383.34375 C39.19814209 384.21217529 38.84550293 385.08060059 38.48217773 385.9753418 C35.11854475 394.13007893 31.38373863 402.02974956 27.17578125 409.78125 C26.83466309 410.41369629 26.49354492 411.04614258 26.14208984 411.69775391 C14.75042888 432.51260532 -0.89320721 448.15684717 -23.28515625 456.72265625 C-37.56777528 460.63532775 -53.36507496 457.56432631 -66.07421875 450.59375 C-71.94027799 446.9430642 -76.88490163 442.58639212 -81.82421875 437.78125 C-82.85482422 436.84345703 -82.85482422 436.84345703 -83.90625 435.88671875 C-102.16232711 418.78289897 -112.45089733 392.75108571 -120.73046875 369.67578125 C-121.54286843 366.92542867 -121.54286843 366.92542867 -122.82421875 365.78125 C-124.50939883 365.96559023 -126.18604602 366.22874959 -127.85546875 366.5234375 C-128.89445312 366.70261719 -129.9334375 366.88179688 -131.00390625 367.06640625 C-132.09960938 367.26105469 -133.1953125 367.45570313 -134.32421875 367.65625 C-164.98157087 373.03798857 -201.04188619 375.37161783 -228.38671875 357.84375 C-241.32051332 348.56287849 -248.44053398 336.91637248 -251.51171875 321.28125 C-254.27031665 290.38495353 -238.93910814 262.5682337 -219.98828125 239.328125 C-218.2962917 237.33683044 -216.58276526 235.37510574 -214.84765625 233.421875 C-214.33710693 232.83937988 -213.82655762 232.25688477 -213.30053711 231.65673828 C-212.29201177 230.50948671 -211.27228468 229.37196489 -210.24047852 228.24560547 C-207.59963621 225.35942322 -207.59963621 225.35942322 -206.76953125 221.67578125 C-208.14521621 219.20464345 -209.80147345 217.386677 -211.76171875 215.34375 C-230.72031924 194.77037912 -250.97835893 165.87882773 -251.82421875 136.78125 C-251.89962891 135.65976562 -251.89962891 135.65976562 -251.9765625 134.515625 C-252.53673208 120.62341953 -248.15214519 106.93975516 -239.63671875 95.9609375 C-224.24460618 79.4042901 -201.59182044 74.01469969 -179.765625 72.84765625 C-162.37243535 72.55460945 -145.52720027 74.56377395 -128.3918457 77.42993164 C-125.59563131 77.87162534 -125.59563131 77.87162534 -121.82421875 77.78125 C-121.63424316 77.2550708 -121.44426758 76.7288916 -121.24853516 76.18676758 C-109.28533115 43.31103099 -93.98637562 9.04014331 -62.01171875 -8.65625 C-40.91593229 -18.4527102 -17.81392295 -14.32929816 0 0 Z M-67.32421875 38.65625 C-74.78231897 49.70700191 -80.76604559 61.80738049 -85.88671875 74.09375 C-86.17369629 74.78049805 -86.46067383 75.46724609 -86.75634766 76.17480469 C-88.30768675 80.0402166 -89.20217689 83.67635203 -89.82421875 87.78125 C-88.95434326 88.07257813 -88.08446777 88.36390625 -87.18823242 88.6640625 C-83.12684569 90.02903612 -79.06845785 91.40253568 -75.01171875 92.78125 C-74.28302582 93.02846802 -73.55433289 93.27568604 -72.80355835 93.53039551 C-63.15006518 96.81583982 -53.64089849 100.24486718 -44.3972168 104.58203125 C-39.04335957 107.01612351 -36.4206524 106.7130265 -31.00366211 104.76904297 C-29.98409424 104.35799316 -28.96452637 103.94694336 -27.9140625 103.5234375 C-26.76776367 103.06557861 -25.62146484 102.60771973 -24.44042969 102.13598633 C-23.22645508 101.64767334 -22.01248047 101.15936035 -20.76171875 100.65625 C-9.21934764 96.0509966 2.40015058 91.75620367 14.17578125 87.78125 C12.87301452 81.05028858 10.90688842 75.06161929 8.17578125 68.78125 C7.58410156 67.41637451 7.58410156 67.41637451 6.98046875 66.02392578 C-0.99741792 48.05800096 -11.65009111 28.35538966 -30.21875 19.703125 C-45.69098805 14.22868995 -58.90044519 27.01989495 -67.32421875 38.65625 Z M-214.82421875 116.78125 C-219.89124422 123.35333254 -219.64482728 130.82305686 -218.82421875 138.78125 C-214.32932281 162.0142434 -198.24741776 181.71519832 -182.82421875 198.78125 C-178.51325306 195.67768139 -174.44888131 192.48400237 -170.57421875 188.84375 C-164.71713542 183.47170639 -158.3445037 178.81536847 -151.95605469 174.09790039 C-151.12364258 173.48293701 -150.29123047 172.86797363 -149.43359375 172.234375 C-148.69077148 171.68942383 -147.94794922 171.14447266 -147.18261719 170.58300781 C-146.4043457 169.98842773 -145.62607422 169.39384766 -144.82421875 168.78125 C-143.2453186 167.65795288 -143.2453186 167.65795288 -141.63452148 166.51196289 C-138.19847334 163.17322616 -137.84572274 161.33818799 -137.25 156.63671875 C-137.15462448 155.94927078 -137.05924896 155.26182281 -136.96098328 154.55354309 C-136.66171063 152.36103926 -136.39803331 150.16606879 -136.13671875 147.96875 C-135.85834932 145.82178022 -135.57254276 143.67590074 -135.28561401 141.53005981 C-135.0952332 140.10137985 -134.90832108 138.67223337 -134.72488403 137.24264526 C-133.88515524 130.82618357 -132.68326768 124.50624387 -131.39916992 118.1652832 C-130.90799232 115.2743224 -130.70343475 112.70060277 -130.82421875 109.78125 C-133.94752328 109.12703818 -137.07312477 108.48448841 -140.19921875 107.84375 C-141.50439453 107.57014648 -141.50439453 107.57014648 -142.8359375 107.29101562 C-164.26317769 102.92620744 -198.01970624 99.48248712 -214.82421875 116.78125 Z M55.17578125 109.78125 C55.79008746 118.48636348 57.12381183 126.99998913 58.61328125 135.59375 C59.05113934 138.14164234 59.48734462 140.68981928 59.921875 143.23828125 C60.14472168 144.48738281 60.36756836 145.73648438 60.59716797 147.0234375 C61.17578125 150.78125 61.17578125 150.78125 61.43017578 154.5546875 C61.90769218 161.38900413 61.90769218 161.38900413 65.13842773 167.24829102 C67.71003882 169.45002847 70.33648269 171.3140165 73.17578125 173.15625 C75.00996557 174.43367482 76.84330134 175.71231889 78.67578125 176.9921875 C79.5879541 177.61125977 80.50012695 178.23033203 81.43994141 178.86816406 C85.85875729 181.95810171 90.0160054 185.35433565 94.17578125 188.78125 C94.80516602 189.29864746 95.43455078 189.81604492 96.08300781 190.34912109 C97.66076254 191.65361052 99.23107966 192.96708122 100.80078125 194.28125 C101.32800781 194.72210938 101.85523438 195.16296875 102.3984375 195.6171875 C103.65834468 196.67092805 104.91719082 197.72593706 106.17578125 198.78125 C121.38722683 192.51372788 133.87973443 165.16990198 140.17578125 150.78125 C143.94233386 141.25253269 146.32207041 131.32552558 142.14453125 121.55859375 C137.3589473 112.77859094 127.50516805 109.29160938 118.51953125 106.578125 C97.9007502 101.66430335 75.51155692 105.08994769 55.17578125 109.78125 Z M-98.82421875 117.78125 C-99.52261543 121.07070282 -100.20607095 124.36308274 -100.88671875 127.65625 C-101.18545898 129.06197266 -101.18545898 129.06197266 -101.49023438 130.49609375 C-101.67392578 131.39199219 -101.85761719 132.28789062 -102.046875 133.2109375 C-102.21968994 134.03835449 -102.39250488 134.86577148 -102.57055664 135.71826172 C-103.02462427 137.84129414 -103.02462427 137.84129414 -101.82421875 139.78125 C-93.57421875 135.16125 -85.32421875 130.54125 -76.82421875 125.78125 C-79.48100213 124.01006108 -81.2879444 123.19513336 -84.2734375 122.2734375 C-85.12099609 122.00917969 -85.96855469 121.74492187 -86.84179688 121.47265625 C-87.72287109 121.20324219 -88.60394531 120.93382812 -89.51171875 120.65625 C-90.40439453 120.37910156 -91.29707031 120.10195312 -92.21679688 119.81640625 C-94.41797157 119.13368896 -96.62043348 118.45548334 -98.82421875 117.78125 Z M16.60546875 119.3125 C15.70957031 119.62832031 14.81367188 119.94414062 13.890625 120.26953125 C12.95347656 120.60339844 12.01632812 120.93726563 11.05078125 121.28125 C10.10589844 121.61511719 9.16101563 121.94898438 8.1875 122.29296875 C5.84926107 123.11961888 3.51208803 123.94915806 1.17578125 124.78125 C4.7391065 127.53692067 8.50146743 129.64434241 12.48828125 131.71875 C17.44267572 134.31343288 22.33381558 136.98130348 27.17578125 139.78125 C26.09952008 132.37336729 24.90442464 125.06624714 23.17578125 117.78125 C20.70190195 117.78125 18.94042505 118.48492055 16.60546875 119.3125 Z M-45.171875 145.28125 C-46.77252808 146.10556519 -46.77252808 146.10556519 -48.40551758 146.9465332 C-49.55431396 147.55198975 -50.70311035 148.15744629 -51.88671875 148.78125 C-52.47713959 149.08993011 -53.06756042 149.39861023 -53.6758728 149.71664429 C-66.37796582 156.36486501 -78.7145787 163.57791426 -90.95068359 171.04541016 C-93.47884447 172.57261694 -96.02616188 174.05224175 -98.59375 175.51171875 C-99.87937529 176.2674318 -101.16458323 177.02385567 -102.44921875 177.78125 C-103.49335938 178.379375 -104.5375 178.9775 -105.61328125 179.59375 C-109.95984045 183.89423261 -109.00980618 192.05176729 -109.17578125 197.92578125 C-109.19938721 198.68544693 -109.22299316 199.44511261 -109.24731445 200.22779846 C-109.32047383 202.68299157 -109.38593322 205.13828351 -109.44921875 207.59375 C-109.48290558 208.85206635 -109.48290558 208.85206635 -109.51727295 210.13580322 C-109.87993742 224.17676779 -109.96308573 238.20570242 -108.97949219 252.22802734 C-108.82421875 254.78125 -108.82421875 254.78125 -108.89550781 257.04150391 C-108.9677964 259.40409144 -108.9677964 259.40409144 -107.82421875 262.78125 C-104.99129569 265.55215566 -101.74086768 267.42926422 -98.32421875 269.40625 C-96.85480835 270.29630737 -96.85480835 270.29630737 -95.35571289 271.2043457 C-92.19813572 273.09909158 -89.0165961 274.94581373 -85.82421875 276.78125 C-84.78378418 277.38340332 -83.74334961 277.98555664 -82.67138672 278.60595703 C-76.45449273 282.18684921 -70.1929663 285.67753996 -63.89160156 289.10742188 C-60.84685533 290.76889753 -57.81614257 292.45421156 -54.78515625 294.140625 C-52.90325864 295.16834374 -51.02048806 296.19446606 -49.13671875 297.21875 C-47.85462524 297.93744263 -47.85462524 297.93744263 -46.54663086 298.6706543 C-43.20553493 300.45623243 -40.70955163 301.74701713 -36.89453125 301.89453125 C-32.16824196 300.1808004 -27.81194072 297.90564129 -23.38671875 295.53125 C-22.37826904 294.9962085 -21.36981934 294.46116699 -20.33081055 293.90991211 C-17.15398584 292.21466914 -13.98729799 290.50199246 -10.82421875 288.78125 C-9.83486328 288.24322754 -8.84550781 287.70520508 -7.82617188 287.15087891 C-1.09536938 283.46737193 5.56105328 279.66904352 12.17578125 275.78125 C13.14435059 275.21696289 14.11291992 274.65267578 15.11083984 274.07128906 C17.94497841 272.4023648 20.75057604 270.69387868 23.55078125 268.96875 C24.40760498 268.46609619 25.26442871 267.96344238 26.1472168 267.44555664 C26.92750244 266.95176514 27.70778809 266.45797363 28.51171875 265.94921875 C29.1979834 265.52922607 29.88424805 265.1092334 30.59130859 264.67651367 C33.04761384 261.73840926 32.97912954 258.46122112 33.17578125 254.78125 C33.24877441 253.4718042 33.32176758 252.1623584 33.39697266 250.81323242 C33.44473019 249.42120209 33.48800335 248.02901238 33.52734375 246.63671875 C33.55094971 245.87705307 33.57455566 245.11738739 33.59887695 244.33470154 C33.67203633 241.87950843 33.73749572 239.42421649 33.80078125 236.96875 C33.82323914 236.12987244 33.84569702 235.29099487 33.86883545 234.42669678 C34.23152527 220.38475095 34.29824847 206.36193221 33.33544922 192.33764648 C33.17578125 189.78125 33.17578125 189.78125 33.20751953 187.49243164 C33.13932305 184.50549607 32.7628901 182.37112388 30.62060547 180.21875 C28.41715896 178.63782084 26.1657164 177.29595059 23.80078125 175.96875 C22.94444092 175.46013428 22.08810059 174.95151855 21.20581055 174.42749023 C18.54285917 172.85380616 15.86034339 171.31769439 13.17578125 169.78125 C11.62587873 168.86489126 10.07762203 167.94574152 8.53125 167.0234375 C-4.04429773 159.57281444 -16.92129033 152.64478638 -29.82421875 145.78125 C-31.53158203 144.853125 -31.53158203 144.853125 -33.2734375 143.90625 C-37.98932734 141.82634759 -40.86406631 143.05614679 -45.171875 145.28125 Z M-147.51171875 210.96875 C-151.21375779 214.33617145 -154.94698576 217.61824414 -158.82421875 220.78125 C-157.22216857 225.20796762 -153.83984463 227.62571104 -150.32421875 230.53125 C-149.72996094 231.03785156 -149.13570312 231.54445313 -148.5234375 232.06640625 C-145.57240003 234.85192754 -145.57240003 234.85192754 -141.82421875 235.78125 C-141.82421875 226.21125 -141.82421875 216.64125 -141.82421875 206.78125 C-143.94481335 206.78125 -146.08096833 209.65776344 -147.51171875 210.96875 Z M66.17578125 207.78125 C66.17578125 217.02125 66.17578125 226.26125 66.17578125 235.78125 C70.34024714 233.00493941 74.1840225 230.28947728 78.05078125 227.15625 C79.01757812 226.38023437 79.984375 225.60421875 80.98046875 224.8046875 C81.70492188 224.13695312 82.429375 223.46921875 83.17578125 222.78125 C83.17578125 222.12125 83.17578125 221.46125 83.17578125 220.78125 C81.17033471 218.90775542 81.17033471 218.90775542 78.61328125 216.96875 C77.76636719 216.30230469 76.91945313 215.63585937 76.046875 214.94921875 C72.8017437 212.49881349 69.48472244 210.14477942 66.17578125 207.78125 Z M-182.82421875 244.78125 C-199.93225757 263.64862614 -220.15013821 288.83895533 -219.19921875 315.61328125 C-218.4396334 322.03019499 -216.2153574 325.92186598 -211.26171875 330.03125 C-191.2335411 343.60467426 -162.29058386 339.64834185 -139.82421875 335.78125 C-136.80935265 335.16464778 -133.82029724 334.48584924 -130.82421875 333.78125 C-131.58815988 326.13404335 -132.8540611 318.64847848 -134.25561523 311.09521484 C-135.18194902 305.96606285 -135.95155531 300.90454125 -136.3671875 295.70703125 C-136.94888363 285.67354119 -136.94888363 285.67354119 -141 276.7578125 C-143.81542078 274.43539594 -146.67738007 272.62567961 -149.82421875 270.78125 C-151.95402646 269.20055416 -154.05124331 267.60477773 -156.13671875 265.96875 C-156.67224365 265.56092285 -157.20776855 265.1530957 -157.75952148 264.73291016 C-162.67090162 260.9830885 -167.34592431 256.97730365 -171.97973633 252.89135742 C-175.43658529 249.8674442 -178.94808037 247.248415 -182.82421875 244.78125 Z M106.17578125 244.78125 C105.12003906 245.78091797 105.12003906 245.78091797 104.04296875 246.80078125 C98.69626917 251.81210614 93.26192365 256.64034783 87.48828125 261.15625 C86.92061035 261.60323242 86.35293945 262.05021484 85.76806641 262.51074219 C82.43433762 265.10842912 79.04241473 267.59067307 75.578125 270.01171875 C74.8049292 270.56617676 74.0317334 271.12063477 73.23510742 271.69189453 C71.73508903 272.76485409 70.21881767 273.81557252 68.68481445 274.83935547 C64.94941666 277.53876915 62.8187686 279.56995999 61.84765625 284.15625 C61.60064637 286.02835268 61.37987471 287.90398385 61.17578125 289.78125 C60.88218869 291.6912327 60.58807218 293.60115051 60.28485107 295.5096283 C59.72290778 299.07549907 59.20251788 302.64753941 58.67578125 306.21875 C57.31338546 315.43295632 55.92961725 324.63117404 54.17578125 333.78125 C67.50470039 338.77416759 82.67603999 339.07157171 96.73828125 339.15625 C97.87797363 339.16994629 99.01766602 339.18364258 100.19189453 339.19775391 C112.35449447 339.13241106 126.50673226 336.99540611 136.55078125 329.53125 C141.68759281 324.14982836 143.42537597 319.71156283 143.73828125 312.21875 C142.89455946 286.68936178 123.53760801 261.9808167 106.17578125 244.78125 Z M-102.82421875 303.78125 C-101.74795758 311.18913271 -100.55286214 318.49625286 -98.82421875 325.78125 C-91.47735412 324.57005323 -84.75232527 322.49453887 -77.82421875 319.78125 C-77.82421875 319.12125 -77.82421875 318.46125 -77.82421875 317.78125 C-78.33283447 317.49926758 -78.8414502 317.21728516 -79.36547852 316.92675781 C-81.70614903 315.62871821 -84.04643591 314.32998841 -86.38671875 313.03125 C-87.58651367 312.36609375 -87.58651367 312.36609375 -88.81054688 311.6875 C-93.50063032 309.08402511 -98.1729138 306.45340909 -102.82421875 303.78125 Z M26.17578125 303.78125 C18.25578125 308.07125 10.33578125 312.36125 2.17578125 316.78125 C2.17578125 317.44125 2.17578125 318.10125 2.17578125 318.78125 C12.57078125 322.24625 12.57078125 322.24625 23.17578125 325.78125 C23.85640625 322.5225 24.53703125 319.26375 25.23828125 315.90625 C25.45621338 314.88031738 25.67414551 313.85438477 25.89868164 312.79736328 C26.06360107 311.99024902 26.22852051 311.18313477 26.3984375 310.3515625 C26.57125244 309.52414551 26.74406738 308.69672852 26.92211914 307.84423828 C27.37618677 305.72120586 27.37618677 305.72120586 26.17578125 303.78125 Z M-46.93359375 340.4140625 C-47.61400223 340.68679489 -48.29441071 340.95952728 -48.99543762 341.24052429 C-50.44455452 341.82214138 -51.89218047 342.40748489 -53.33840942 342.99624634 C-57.05981758 344.51090817 -60.79190857 345.99876732 -64.5234375 347.48828125 C-65.24921494 347.77871811 -65.97499237 348.06915497 -66.72276306 348.36839294 C-74.34258643 351.40765407 -82.04453606 354.18010418 -89.82421875 356.78125 C-85.4996393 378.45385507 -71.48458448 407.97664757 -52.82421875 420.78125 C-46.35235486 424.90569207 -40.53427258 427.23893205 -32.82421875 425.78125 C-17.16984381 420.66911818 -6.84507021 405.80814991 0.41479492 391.80297852 C4.34214028 383.94923619 7.84767301 375.90514155 11.17578125 367.78125 C11.52898437 366.95367187 11.8821875 366.12609375 12.24609375 365.2734375 C13.74669984 361.61135244 13.74669984 361.61135244 14.10302734 357.71386719 C13.29521695 355.52564926 13.29521695 355.52564926 10.70166016 354.53613281 C9.61288574 354.18905273 8.52411133 353.84197266 7.40234375 353.484375 C6.19320312 353.08653809 4.9840625 352.68870117 3.73828125 352.27880859 C3.09503906 352.07503601 2.45179688 351.87126343 1.7890625 351.66131592 C-1.53834053 350.60689606 -4.84917637 349.50316326 -8.16015625 348.3984375 C-8.81860535 348.17979034 -9.47705444 347.96114319 -10.15545654 347.73587036 C-16.6333792 345.55959082 -22.88555788 342.95354406 -29.09912109 340.11816406 C-36.07764582 336.99965104 -40.01094866 337.55349721 -46.93359375 340.4140625 Z " fill="#00CDDD" transform="translate(293.82421875,34.21875)"/>
<path d="M0 0 C9.78904544 8.74101552 14.29402582 21.44461351 15.375 34.25 C15.54256299 47.69227569 9.94043942 59.68245433 1.09375 69.58984375 C-8.38145787 78.74203317 -21.42718954 83.12288048 -34.4453125 83.28515625 C-47.42809665 82.52690247 -59.60743432 76.5858327 -68.625 67.25 C-76.97687453 56.83519243 -81.28112689 44.06191645 -80.5 30.6875 C-78.94141404 18.11007377 -72.56340747 5.61599214 -62.59375 -2.37890625 C-42.30133949 -16.63361011 -19.16404874 -15.14713022 0 0 Z M-44.9375 25.75 C-47.84532904 30.05789488 -48.15430947 34.17825285 -47.625 39.25 C-45.90771412 43.94994029 -43.75893334 46.45959499 -39.625 49.25 C-34.59641801 50.926194 -30.28469589 50.85642735 -25.375 49.0625 C-21.38938846 46.43561967 -19.13519469 43.78058408 -17.625 39.25 C-17.2565569 33.63124276 -17.43309772 30.09288621 -20.625 25.25 C-25.08676039 21.12287164 -28.45294743 19.93420005 -34.56640625 20.03515625 C-39.10389622 20.50870833 -41.906041 22.47274702 -44.9375 25.75 Z " fill="#00CDDD" transform="translate(288.625,220.75)"/>
</svg>
