<svg version="1.1" id="Layer_1" xmlns="http://www.w3.org/2000/svg" xmlns:xlink="http://www.w3.org/1999/xlink" x="0px" y="0px"
	 width="100%" viewBox="0 0 226 223" enable-background="new 0 0 226 223" xml:space="preserve">
<path fill="#161D2D" opacity="1.000000" stroke="none" 
	d="
M108.000000,224.000000 
	C72.000000,224.000000 36.500004,224.000000 1.000005,224.000000 
	C1.000003,149.666672 1.000003,75.333344 1.000002,1.000015 
	C76.333321,1.000010 151.666641,1.000010 226.999969,1.000005 
	C226.999985,75.333321 226.999985,149.666641 227.000000,223.999969 
	C187.500000,224.000000 148.000000,224.000000 108.000000,224.000000 
M95.908592,78.007149 
	C104.115097,77.185120 110.921249,80.086723 116.680229,85.798759 
	C119.400497,88.496864 122.158585,91.156898 124.873756,93.860077 
	C133.244400,102.193771 143.288773,106.640533 155.093094,107.631073 
	C175.556183,109.348183 191.781845,99.740349 198.175522,81.696945 
	C198.610504,80.469429 198.752747,79.138176 199.334778,76.455849 
	C197.125793,78.556900 196.070541,79.584122 194.990311,80.584351 
	C185.117783,89.725739 172.253967,90.208900 161.911713,81.649834 
	C158.841721,79.109169 156.004578,76.252937 153.276642,73.339157 
	C141.958588,61.250038 127.948318,56.760048 111.699303,58.165535 
	C94.620247,59.642830 81.241364,70.816612 77.764450,86.447388 
	C83.422234,83.713478 89.238457,80.903015 95.908592,78.007149 
M76.100807,136.374634 
	C79.699730,139.836075 83.141388,143.480865 86.925400,146.726517 
	C101.594925,159.309021 126.461052,161.093857 142.059235,150.829926 
	C150.136093,145.515182 157.524353,133.929565 157.341095,125.162209 
	C156.194519,127.008995 155.809128,128.004395 155.116653,128.689392 
	C143.208649,140.468597 129.762589,140.543320 117.664650,128.929398 
	C114.542381,125.932045 111.506584,122.842690 108.336243,119.897675 
	C94.831718,107.353020 78.763138,105.235420 61.737724,109.606895 
	C46.952381,113.403214 39.114159,124.311920 35.042332,139.012344 
	C53.240681,124.681442 62.322765,124.053436 76.100807,136.374634 
z"/>
<path fill="#17BCC9" opacity="1.000000" stroke="none" 
	d="
M95.481636,78.049850 
	C89.238457,80.903015 83.422234,83.713478 77.764450,86.447388 
	C81.241364,70.816612 94.620247,59.642830 111.699303,58.165535 
	C127.948318,56.760048 141.958588,61.250038 153.276642,73.339157 
	C156.004578,76.252937 158.841721,79.109169 161.911713,81.649834 
	C172.253967,90.208900 185.117783,89.725739 194.990311,80.584351 
	C196.070541,79.584122 197.125793,78.556900 199.334778,76.455849 
	C198.752747,79.138176 198.610504,80.469429 198.175522,81.696945 
	C191.781845,99.740349 175.556183,109.348183 155.093094,107.631073 
	C143.288773,106.640533 133.244400,102.193771 124.873756,93.860077 
	C122.158585,91.156898 119.400497,88.496864 116.680229,85.798759 
	C110.921249,80.086723 104.115097,77.185120 95.481636,78.049850 
z"/>
<path fill="#17BCC9" opacity="1.000000" stroke="none" 
	d="
M75.850830,136.121582 
	C62.322765,124.053436 53.240681,124.681442 35.042332,139.012344 
	C39.114159,124.311920 46.952381,113.403214 61.737724,109.606895 
	C78.763138,105.235420 94.831718,107.353020 108.336243,119.897675 
	C111.506584,122.842690 114.542381,125.932045 117.664650,128.929398 
	C129.762589,140.543320 143.208649,140.468597 155.116653,128.689392 
	C155.809128,128.004395 156.194519,127.008995 157.341095,125.162209 
	C157.524353,133.929565 150.136093,145.515182 142.059235,150.829926 
	C126.461052,161.093857 101.594925,159.309021 86.925400,146.726517 
	C83.141388,143.480865 79.699730,139.836075 75.850830,136.121582 
z"/>
</svg>