<svg version="1.1" id="Layer_1" xmlns="http://www.w3.org/2000/svg" xmlns:xlink="http://www.w3.org/1999/xlink" x="0px" y="0px"
	 width="100%" viewBox="0 0 512 512" enable-background="new 0 0 512 512" xml:space="preserve">
<path fill="#3178C6" opacity="1.000000" stroke="none" 
	d="
M1.000004,477.000000 
	C1.000000,330.642578 1.000000,184.285187 1.312362,37.765446 
	C1.988469,37.265614 2.562526,36.991306 2.685678,36.581497 
	C7.835136,19.445814 19.040352,8.336425 36.001984,2.859721 
	C36.484512,2.703918 36.673920,1.640314 37.000000,1.000000 
	C183.357407,1.000000 329.714813,1.000000 476.234558,1.312374 
	C476.734528,1.988726 477.008301,2.560435 477.419067,2.686783 
	C494.461517,7.928923 505.708069,18.994545 511.139893,36.001171 
	C511.293793,36.482994 512.359497,36.673607 513.000000,37.000008 
	C513.000000,183.357407 513.000000,329.714813 512.688416,476.232941 
	C512.012695,476.731079 511.441193,477.004456 511.314362,477.415192 
	C506.055878,494.444275 495.016998,505.720215 477.995758,511.140594 
	C477.515198,511.293610 477.325378,512.359680 477.000000,513.000000 
	C330.642578,513.000000 184.285187,513.000000 37.765785,512.687866 
	C37.266197,512.011841 36.992554,511.440643 36.581768,511.313812 
	C19.552603,506.057709 8.283877,495.013672 2.859386,477.998657 
	C2.705866,477.517120 1.640299,477.326355 1.000004,477.000000 
M433.522705,462.066010 
	C472.529663,445.931824 476.885590,403.681274 465.767975,377.922455 
	C459.056915,362.373291 446.548096,352.569580 432.061432,345.161438 
	C417.703430,337.819122 402.792786,331.551788 388.488892,324.112335 
	C383.173248,321.347656 378.183044,317.196533 374.296204,312.615570 
	C367.717834,304.862335 368.543579,294.322601 376.588928,288.169525 
	C381.657990,284.292725 388.162445,281.272552 394.428833,280.165833 
	C416.361938,276.292328 437.102509,280.788971 456.552124,291.478973 
	C457.887787,292.213074 459.187653,293.012329 461.081970,294.118713 
	C461.081970,278.964905 461.187317,264.805115 460.924896,250.652145 
	C460.897583,249.177277 458.899048,246.746506 457.462494,246.446213 
	C445.282715,243.900253 433.106964,240.799881 420.765350,239.678757 
	C397.836334,237.595840 375.160034,239.321045 353.711884,248.922272 
	C307.536041,269.592804 309.647064,323.906921 332.844177,347.201782 
	C342.167206,356.564087 353.095490,363.375916 365.017853,368.756226 
	C375.022003,373.270844 385.353119,377.153748 395.015045,382.300751 
	C401.369873,385.686035 407.606171,390.070099 412.458923,395.331848 
	C421.623535,405.268707 418.977570,418.741425 407.138550,425.281036 
	C403.136169,427.491882 398.576019,429.209656 394.076324,429.918457 
	C367.924683,434.037994 344.233459,427.700897 322.860382,412.265076 
	C321.451660,411.247742 320.007965,410.278870 317.964386,408.859467 
	C317.964386,424.281036 318.181213,438.908051 317.826904,453.521240 
	C317.725922,457.684906 319.361725,459.378662 322.759583,460.786987 
	C337.721375,466.988251 353.431885,469.659637 369.454590,470.583954 
	C391.062103,471.830444 412.422333,470.689209 433.522705,462.066010 
M119.149902,284.175751 
	C120.880219,284.462891 122.609688,284.993500 124.340981,284.999512 
	C142.003174,285.061035 159.665649,285.037231 177.328049,285.037262 
	C179.089203,285.037262 180.850357,285.037262 183.194138,285.037262 
	C183.194138,346.438904 183.194138,407.136688 183.194138,467.630493 
	C200.365936,467.630493 216.943939,467.630493 233.962692,467.630493 
	C233.962692,406.686981 233.962692,346.112213 233.962692,285.003418 
	C255.464508,285.003418 276.525635,285.003418 297.667664,285.003418 
	C297.667664,271.079498 297.667664,257.694427 297.667664,244.382721 
	C237.959335,244.382721 178.584961,244.382721 119.024940,244.382721 
	C119.024940,257.585175 119.024940,270.405060 119.149902,284.175751 
z"/>
<path fill="#000000" opacity="1.000000" stroke="none" 
	d="
M513.000000,36.531349 
	C512.359497,36.673607 511.293793,36.482994 511.139893,36.001171 
	C505.708069,18.994545 494.461517,7.928923 477.419067,2.686783 
	C477.008301,2.560435 476.734528,1.988726 476.698425,1.312374 
	C488.926605,1.000000 500.853180,1.000000 513.000000,1.000000 
	C513.000000,12.686640 513.000000,24.374662 513.000000,36.531349 
z"/>
<path fill="#000000" opacity="1.000000" stroke="none" 
	d="
M1.000004,477.468628 
	C1.640299,477.326355 2.705866,477.517120 2.859386,477.998657 
	C8.283877,495.013672 19.552603,506.057709 36.581768,511.313812 
	C36.992554,511.440643 37.266197,512.011841 37.301903,512.687866 
	C25.073397,513.000000 13.146791,513.000000 1.000000,513.000000 
	C1.000000,501.313354 1.000000,489.625336 1.000004,477.468628 
z"/>
<path fill="#000000" opacity="1.000000" stroke="none" 
	d="
M477.468658,513.000000 
	C477.325378,512.359680 477.515198,511.293610 477.995758,511.140594 
	C495.016998,505.720215 506.055878,494.444275 511.314362,477.415192 
	C511.441193,477.004456 512.012695,476.731079 512.688416,476.696838 
	C513.000000,488.926605 513.000000,500.853180 513.000000,513.000000 
	C501.313354,513.000000 489.625336,513.000000 477.468658,513.000000 
z"/>
<path fill="#000000" opacity="1.000000" stroke="none" 
	d="
M36.531342,1.000000 
	C36.673920,1.640314 36.484512,2.703918 36.001984,2.859721 
	C19.040352,8.336425 7.835136,19.445814 2.685678,36.581497 
	C2.562526,36.991306 1.988469,37.265614 1.312362,37.301559 
	C1.000000,25.073397 1.000000,13.146794 1.000000,1.000000 
	C12.686640,1.000000 24.374662,1.000000 36.531342,1.000000 
z"/>
<path fill="#FEFEFF" opacity="1.000000" stroke="none" 
	d="
M433.169861,462.213989 
	C412.422333,470.689209 391.062103,471.830444 369.454590,470.583954 
	C353.431885,469.659637 337.721375,466.988251 322.759583,460.786987 
	C319.361725,459.378662 317.725922,457.684906 317.826904,453.521240 
	C318.181213,438.908051 317.964386,424.281036 317.964386,408.859467 
	C320.007965,410.278870 321.451660,411.247742 322.860382,412.265076 
	C344.233459,427.700897 367.924683,434.037994 394.076324,429.918457 
	C398.576019,429.209656 403.136169,427.491882 407.138550,425.281036 
	C418.977570,418.741425 421.623535,405.268707 412.458923,395.331848 
	C407.606171,390.070099 401.369873,385.686035 395.015045,382.300751 
	C385.353119,377.153748 375.022003,373.270844 365.017853,368.756226 
	C353.095490,363.375916 342.167206,356.564087 332.844177,347.201782 
	C309.647064,323.906921 307.536041,269.592804 353.711884,248.922272 
	C375.160034,239.321045 397.836334,237.595840 420.765350,239.678757 
	C433.106964,240.799881 445.282715,243.900253 457.462494,246.446213 
	C458.899048,246.746506 460.897583,249.177277 460.924896,250.652145 
	C461.187317,264.805115 461.081970,278.964905 461.081970,294.118713 
	C459.187653,293.012329 457.887787,292.213074 456.552124,291.478973 
	C437.102509,280.788971 416.361938,276.292328 394.428833,280.165833 
	C388.162445,281.272552 381.657990,284.292725 376.588928,288.169525 
	C368.543579,294.322601 367.717834,304.862335 374.296204,312.615570 
	C378.183044,317.196533 383.173248,321.347656 388.488892,324.112335 
	C402.792786,331.551788 417.703430,337.819122 432.061432,345.161438 
	C446.548096,352.569580 459.056915,362.373291 465.767975,377.922455 
	C476.885590,403.681274 472.529663,445.931824 433.169861,462.213989 
z"/>
<path fill="#FFFFFF" opacity="1.000000" stroke="none" 
	d="
M119.087418,283.700317 
	C119.024940,270.405060 119.024940,257.585175 119.024940,244.382721 
	C178.584961,244.382721 237.959335,244.382721 297.667664,244.382721 
	C297.667664,257.694427 297.667664,271.079498 297.667664,285.003418 
	C276.525635,285.003418 255.464508,285.003418 233.962692,285.003418 
	C233.962692,346.112213 233.962692,406.686981 233.962692,467.630493 
	C216.943939,467.630493 200.365936,467.630493 183.194138,467.630493 
	C183.194138,407.136688 183.194138,346.438904 183.194138,285.037262 
	C180.850357,285.037262 179.089203,285.037262 177.328049,285.037262 
	C159.665649,285.037231 142.003174,285.061035 124.340981,284.999512 
	C122.609688,284.993500 120.880219,284.462891 119.087418,283.700317 
z"/>
</svg>